<svg width="17" height="17" viewBox="0 0 17 17" fill="none" xmlns="http://www.w3.org/2000/svg">
<path d="M14.5625 12.8C15.2856 12.118 15.8584 11.2925 16.2441 10.3765C16.6298 9.46037 16.82 8.47383 16.8025 7.48C16.8025 3.36 13.2725 0 8.7525 0C4.2325 0 0.5625 3.36 0.5625 7.48C0.5625 11.61 4.2325 14.96 8.7625 14.96C9.56665 14.9613 10.3673 14.8537 11.1425 14.64C11.3725 14.84 11.6225 15.03 11.8925 15.2C12.9525 15.89 14.0925 16.24 15.2925 16.24C15.5125 16.24 15.6925 16.13 15.7725 15.95C15.8143 15.868 15.8327 15.7761 15.8257 15.6844C15.8186 15.5926 15.7864 15.5046 15.7325 15.43C15.1487 14.6468 14.7519 13.7403 14.5725 12.78V12.8H14.5625ZM11.4425 13.86L11.3825 13.64L11.0625 13.74C10.316 13.9613 9.54114 14.0725 8.7625 14.07C4.7325 14.07 1.4625 11.11 1.4625 7.48C1.4625 3.85 4.7325 0.9 8.7625 0.9C12.7625 0.9 15.8625 3.86 15.8625 7.5C15.8625 9.3 15.2625 10.97 13.8425 12.22L13.6425 12.38V12.64L13.6625 12.94C13.8001 13.7888 14.0988 14.6035 14.5425 15.34C13.764 15.2191 13.0225 14.9253 12.3725 14.48C12.0925 14.31 11.6525 14.1 11.4325 13.89L11.4425 13.87V13.86Z" fill="#706E72"/>
</svg>
