<svg width="8" height="6" viewBox="0 0 8 6" fill="none" xmlns="http://www.w3.org/2000/svg">
<path fill-rule="evenodd" clip-rule="evenodd" d="M1.07994 1.11996C1.00291 1.06219 0.90763 1.03414 0.811586 1.04097C0.715543 1.04779 0.625184 1.08903 0.557099 1.15712C0.489015 1.2252 0.447774 1.31556 0.440948 1.41161C0.434123 1.50765 0.46217 1.60293 0.519942 1.67996L3.99994 5.16796L7.47994 1.67996C7.52579 1.64558 7.56371 1.60174 7.59114 1.55142C7.61857 1.50111 7.63487 1.44548 7.63894 1.38832C7.643 1.33115 7.63473 1.27378 7.61469 1.22009C7.59465 1.1664 7.56331 1.11764 7.52278 1.07712C7.48226 1.03659 7.4335 1.00525 7.37981 0.985213C7.32612 0.965173 7.26875 0.956905 7.21159 0.960967C7.15442 0.96503 7.0988 0.981329 7.04848 1.00876C6.99816 1.03619 6.95433 1.07411 6.91994 1.11996L3.99994 4.03196L1.07994 1.11996Z" fill="#706E72"/>
</svg>
