<svg width="16" height="16" viewBox="0 0 16 16" fill="none" xmlns="http://www.w3.org/2000/svg">
<path d="M15.75 8.04001C15.75 3.74001 12.28 0.250009 8.00002 0.250009C6.5115 0.2477 5.05365 0.673001 3.79987 1.47532C2.54609 2.27765 1.54916 3.42322 0.927655 4.77578C0.306152 6.12834 0.0862384 7.63095 0.294073 9.10489C0.501907 10.5788 1.12874 11.962 2.10002 13.09C3.30052 14.4969 4.9635 15.4295 6.79002 15.72V10.23H4.89002V8.03001H6.79002V6.41001C6.79002 4.53001 7.93002 3.51001 9.59002 3.51001C10.39 3.51001 11.08 3.57001 11.28 3.59001V5.56001H10.13C9.22002 5.56001 9.03001 5.99001 9.03001 6.63001V8.03001H11.2L10.92 10.23H9.04002V15.75C10.8999 15.4914 12.6032 14.568 13.8349 13.1507C15.0667 11.7333 15.7434 9.91779 15.74 8.04001" fill="#868588"/>
</svg>
