<svg width="20" height="22" viewBox="0 0 20 22" fill="none" xmlns="http://www.w3.org/2000/svg">
<path fill-rule="evenodd" clip-rule="evenodd" d="M9.37 0.83L10 3.28L10.63 0.83H9.37ZM11.92 3.95L13.44 1.85L12.26 1.45L11.92 3.95ZM6.59 1.84L8.11 3.95L7.77 1.45L6.59 1.85V1.84ZM16.52 18.92C15.8336 19.6622 14.9042 20.134 13.9 20.25L14.31 19.88C16.7 17.48 17.17 14.93 15.71 12.25L14.8 10.65L14 8.98C13.75 8.42 13.81 8 14.21 7.69C14.2876 7.63129 14.3766 7.58941 14.4713 7.56703C14.566 7.54464 14.6643 7.54225 14.76 7.56C15.04 7.61 15.3 7.79 15.48 8.06L17.85 12.22C18.82 13.84 18.99 16.45 16.52 18.92ZM5.52 18.48L1.37 14.33C1.23484 14.1711 1.16445 13.9672 1.17284 13.7588C1.18123 13.5504 1.26778 13.3528 1.41527 13.2053C1.56276 13.0578 1.76038 12.9712 1.96879 12.9628C2.1772 12.9545 2.38113 13.0248 2.54 13.16L4.7 15.32C4.77173 15.3689 4.85835 15.391 4.94472 15.3824C5.03109 15.3739 5.11171 15.3353 5.17248 15.2733C5.23325 15.2113 5.2703 15.13 5.27716 15.0435C5.28402 14.9569 5.26025 14.8708 5.21 14.8L3.06 12.64L1.6 11.2C1.46484 11.0411 1.39445 10.8372 1.40284 10.6288C1.41123 10.4204 1.49778 10.2228 1.64527 10.0753C1.79276 9.92778 1.99038 9.84123 2.19879 9.83284C2.4072 9.82445 2.61113 9.89484 2.77 10.03L6.2 13.47C6.2336 13.5051 6.27396 13.533 6.31865 13.5521C6.36333 13.5712 6.41141 13.581 6.46 13.581C6.50859 13.581 6.55667 13.5712 6.60135 13.5521C6.64604 13.533 6.6864 13.5051 6.72 13.47C6.75509 13.4364 6.78301 13.396 6.80209 13.3514C6.82117 13.3067 6.831 13.2586 6.831 13.21C6.831 13.1614 6.82117 13.1133 6.80209 13.0686C6.78301 13.024 6.75509 12.9836 6.72 12.95L3.29 9.51L2.32 8.54C2.16852 8.38494 2.08372 8.17677 2.08372 7.96C2.08372 7.74323 2.16852 7.53506 2.32 7.38C2.47675 7.22788 2.68658 7.14281 2.905 7.14281C3.12342 7.14281 3.33325 7.22788 3.49 7.38L4.46 8.35L7.9 11.78C7.93344 11.8136 7.97319 11.8402 8.01694 11.8584C8.0607 11.8765 8.10762 11.8859 8.155 11.8859C8.20238 11.8859 8.2493 11.8765 8.29305 11.8584C8.33681 11.8402 8.37655 11.8136 8.41 11.78C8.4784 11.7107 8.51675 11.6173 8.51675 11.52C8.51675 11.4227 8.4784 11.3293 8.41 11.26L4.98 7.83C4.86366 7.71504 4.78436 7.56792 4.75229 7.40754C4.72021 7.24717 4.73683 7.08086 4.8 6.93C4.86163 6.77907 4.96685 6.64994 5.10222 6.5591C5.2376 6.46826 5.39697 6.41983 5.56 6.42C5.78 6.42 5.99 6.51 6.14 6.66L11.94 12.45C12.0032 12.5021 12.0819 12.5317 12.1637 12.5343C12.2456 12.5368 12.326 12.5122 12.3923 12.4641C12.4586 12.4161 12.5071 12.3474 12.5303 12.2689C12.5534 12.1903 12.5498 12.1063 12.52 12.03L11.4 9.67C11.14 9.11 11.2 8.69 11.6 8.38C11.6776 8.32129 11.7666 8.27941 11.8613 8.25703C11.956 8.23464 12.0543 8.23225 12.15 8.25C12.43 8.3 12.7 8.48 12.88 8.75L15.08 12.61C16.38 14.99 15.95 17.2 13.79 19.36C13.2594 19.9172 12.5989 20.334 11.8677 20.5731C11.1364 20.8122 10.3572 20.8661 9.6 20.73C8.04454 20.4156 6.62355 19.63 5.53 18.48H5.52ZM8.75 5.98L10.87 8.09C10.46 8.59 10.4 9.26 10.74 9.99L10.96 10.45L7.44 6.92C7.37907 6.80943 7.34482 6.68615 7.34 6.56C7.34 6.33 7.43 6.13 7.58 5.97C7.73793 5.82018 7.94732 5.73666 8.165 5.73666C8.38268 5.73666 8.59207 5.82018 8.75 5.97V5.98ZM16.11 7.68C15.9739 7.46279 15.7944 7.27606 15.5828 7.1315C15.3711 6.98695 15.1318 6.88771 14.88 6.84C14.6848 6.80549 14.4845 6.81165 14.2918 6.85811C14.0991 6.90457 13.918 6.99032 13.76 7.11C13.46 7.35 13.26 7.66 13.18 8C12.93 7.75 12.61 7.6 12.27 7.53C11.99 7.49 11.71 7.53 11.45 7.63L9.27 5.45C8.9777 5.15933 8.58223 4.99616 8.17 4.99616C7.75777 4.99616 7.3623 5.15933 7.07 5.45C6.87 5.65 6.74 5.89 6.67 6.15C6.47344 5.95128 6.22709 5.80902 5.95672 5.7381C5.68635 5.66718 5.40189 5.6702 5.1331 5.74685C4.8643 5.82351 4.62103 5.97097 4.42874 6.17383C4.23644 6.37669 4.10218 6.62749 4.04 6.9C3.74661 6.60441 3.34952 6.43488 2.93312 6.42741C2.51671 6.41994 2.1138 6.57513 1.81 6.86C1.51933 7.1523 1.35616 7.54777 1.35616 7.96C1.35616 8.37223 1.51933 8.7677 1.81 9.06C1.57 9.16 1.31 9.3 1.09 9.51C0.799327 9.8023 0.636164 10.1978 0.636164 10.61C0.636164 11.0222 0.799327 11.4177 1.09 11.71L1.61 12.23C1.34142 12.2943 1.09473 12.4287 0.895125 12.6196C0.695519 12.8104 0.550154 13.0509 0.473883 13.3163C0.397611 13.5817 0.393168 13.8626 0.461005 14.1303C0.528843 14.398 0.66653 14.6429 0.86 14.84L5 19C6.20535 20.2586 7.76997 21.1142 9.48 21.45C10.6244 21.6658 11.808 21.4896 12.84 20.95C13.6097 21.0497 14.392 20.9647 15.1223 20.7021C15.8526 20.4396 16.51 20.0069 17.04 19.44C19.79 16.67 19.58 13.7 18.47 11.85L16.1 7.68H16.11Z" fill="#706E72"/>
</svg>
