<svg width="16" height="16" viewBox="0 0 16 16" fill="none" xmlns="http://www.w3.org/2000/svg">
<path d="M15.75 1.39V14.61C15.75 14.9123 15.6299 15.2023 15.4161 15.4161C15.2023 15.6299 14.9123 15.75 14.61 15.75H1.39C1.08765 15.75 0.79769 15.6299 0.583898 15.4161C0.370107 15.2023 0.25 14.9123 0.25 14.61V1.39C0.25 1.08765 0.370107 0.79769 0.583898 0.583898C0.79769 0.370107 1.08765 0.25 1.39 0.25H14.61C14.9123 0.25 15.2023 0.370107 15.4161 0.583898C15.6299 0.79769 15.75 1.08765 15.75 1.39ZM4.81 6.18H2.53V13.48H4.8V6.18H4.81ZM5 3.67C5.00132 3.49797 4.96874 3.32736 4.90412 3.16792C4.8395 3.00848 4.74411 2.86332 4.62339 2.74075C4.50268 2.61818 4.359 2.52058 4.20056 2.45353C4.04212 2.38649 3.87203 2.35131 3.7 2.35H3.66C3.30991 2.35 2.97417 2.48907 2.72662 2.73662C2.47907 2.98417 2.34 3.31991 2.34 3.67C2.34 4.02009 2.47907 4.35583 2.72662 4.60338C2.97417 4.85093 3.30991 4.99 3.66 4.99C3.83204 4.99398 4.00319 4.96403 4.16365 4.90186C4.32411 4.83968 4.47076 4.74649 4.59519 4.62763C4.71963 4.50876 4.81943 4.36654 4.88889 4.20909C4.95835 4.05164 4.99611 3.88205 5 3.71V3.67ZM13.46 9.04C13.46 6.84 12.06 5.99 10.68 5.99C10.227 5.96903 9.77643 6.06691 9.37296 6.2739C8.96949 6.4809 8.62718 6.78982 8.38 7.17H8.31V6.17H6.17V13.47H8.45V9.6C8.41659 9.20401 8.54063 8.81081 8.79522 8.50568C9.04981 8.20054 9.41443 8.00807 9.81 7.97H9.9C10.62 7.97 11.16 8.42 11.16 9.57V13.48H13.44L13.46 9.05V9.04Z" fill="#868588"/>
</svg>
