<svg width="18" height="16" viewBox="0 0 18 16" fill="none" xmlns="http://www.w3.org/2000/svg">
<path fill-rule="evenodd" clip-rule="evenodd" d="M0.570007 10.67C0.570007 10.1 0.700007 9.56 0.950007 9.07L0.970007 9.05V9.03L0.990007 9.01C0.990007 8.99 0.990008 8.99 1.01001 8.99C1.13001 8.73 1.31001 8.47 1.58001 8.19L4.78001 5V4.98L4.79001 4.96C5.23001 4.55 5.70001 4.26 6.23001 4.11C5.62337 4.77193 5.21154 5.58868 5.04001 6.47C4.98433 6.84397 4.97091 7.22303 5.00001 7.6L3.04001 9.6C2.85001 9.79 2.72001 10 2.66001 10.25C2.59163 10.5461 2.59163 10.8539 2.66001 11.15C2.74001 11.35 2.86001 11.55 3.04001 11.72L4.33001 13.03C4.60001 13.31 4.95001 13.45 5.36001 13.45C5.78001 13.45 6.14001 13.31 6.42001 13.03L7.65001 11.78L8.44001 11L9.59001 9.84C9.67001 9.75 9.78001 9.62 9.87001 9.44C9.97001 9.24 10.02 9.02 10.02 8.77C10.02 8.61 10 8.47 9.96001 8.32L9.94001 8.3V8.28L9.87001 8.14C9.87001 8.14 9.87001 8.11 9.83001 8.08L9.77001 7.95L9.75001 7.93C9.75001 7.91 9.75001 7.9 9.73001 7.88C9.69324 7.81876 9.64583 7.76457 9.59001 7.72L9.11001 7.22C9.11001 7.18 9.13001 7.12 9.15001 7.07L9.21001 6.95L10.38 5.81L10.47 5.72L11.03 6.29C11.05 6.33 11.11 6.39 11.19 6.47L11.24 6.51L11.27 6.57L11.31 6.62L11.34 6.66L11.38 6.72L11.48 6.86L11.5 6.88C11.5 6.9 11.51 6.91 11.53 6.92L11.63 7.12V7.14C11.73 7.3 11.83 7.52 11.93 7.82C11.9539 7.9013 11.9673 7.98531 11.97 8.07C12.0698 8.50704 12.0766 8.96016 11.99 9.4C11.8726 10.106 11.5409 10.7588 11.04 11.27L10.38 11.94L9.41001 12.91L7.85001 14.48C7.52854 14.808 7.14394 15.0675 6.71942 15.2428C6.2949 15.4181 5.83926 15.5056 5.38001 15.5C4.41001 15.5 3.58001 15.16 2.89001 14.47L1.59001 13.17C0.938869 12.4978 0.579476 11.5958 0.590007 10.66V10.65H0.570007V10.67ZM5.96001 7.24C5.96001 7.05 5.98001 6.84 6.03001 6.61C6.16001 5.87 6.47001 5.24 6.98001 4.74L7.64001 4.07L8.61001 3.09L10.17 1.53C10.85 0.84 11.67 0.5 12.64 0.5C13.61 0.5 14.44 0.84 15.12 1.52L16.42 2.84C16.742 3.16702 16.9961 3.55449 17.1677 3.98012C17.3393 4.40574 17.4251 4.86111 17.42 5.32C17.42 5.9 17.31 6.43 17.05 6.92L17.03 6.94V6.96L17.01 7C16.87 7.27 16.66 7.54 16.41 7.8L13.23 11L13.22 11.02L13.21 11.04C12.77 11.46 12.29 11.74 11.78 11.87C12.222 11.4034 12.5601 10.8485 12.7721 10.2418C12.9841 9.63507 13.0652 8.99032 13.01 8.35L15 6.38C15.18 6.17 15.3 5.96 15.35 5.73C15.4141 5.43303 15.4106 5.12547 15.34 4.83C15.2549 4.6171 15.133 4.42079 14.98 4.25L13.68 2.95C13.3963 2.675 13.0151 2.52393 12.62 2.53C12.2 2.53 11.85 2.67 11.56 2.93L10.36 4.2L9.56001 5L8.40001 6.15C8.32001 6.23 8.22001 6.36 8.11001 6.55C7.95405 6.90271 7.92577 7.29871 8.03001 7.67L8.05001 7.7V7.72L8.11001 7.86C8.11001 7.86 8.12001 7.89 8.16001 7.92L8.22001 8.05L8.24001 8.07L8.25001 8.09L8.26001 8.11C8.31001 8.19 8.36001 8.24 8.40001 8.27L8.87001 8.77C8.87001 8.81 8.85001 8.86 8.83001 8.92L8.77001 9.04L7.62001 10.19L7.52001 10.27L6.96001 9.71C6.90366 9.6433 6.84356 9.57987 6.78001 9.52C6.76001 9.51 6.76001 9.49 6.76001 9.48L6.74001 9.46C6.69851 9.42757 6.66442 9.38666 6.64001 9.34C6.61001 9.31 6.59001 9.3 6.59001 9.28L6.49001 9.13L6.47001 9.11L6.45001 9.07L6.37001 8.9V8.88C6.25999 8.65713 6.1664 8.42652 6.09001 8.19C6.06562 8.1054 6.05217 8.01802 6.05001 7.93C5.99001 7.7 5.95001 7.47 5.95001 7.23V7.24H5.96001Z" fill="#868588"/>
</svg>
