<svg width="38" height="38" viewBox="0 0 38 38" fill="none" xmlns="http://www.w3.org/2000/svg">
    <rect x="0.5" y="0.5" width="37" height="37" rx="18.5" fill="#BB1A8E" />
    <g clip-path="url(#clip0_72_1665)">
        <path
            d="M26.3421 10C26.3421 9.86919 26.2361 9.76315 26.1053 9.76315C25.9744 9.76315 25.8684 9.86919 25.8684 10V15.6842C25.8684 15.815 25.9744 15.921 26.1053 15.921C26.2361 15.921 26.3421 15.815 26.3421 15.6842V10Z"
            stroke="#FFF1FF" stroke-width="0.947368" />
        <path
            d="M28.9474 13.0789C29.0782 13.0789 29.1842 12.9729 29.1842 12.8421C29.1842 12.7113 29.0782 12.6053 28.9474 12.6053H23.2632C23.1323 12.6053 23.0263 12.7113 23.0263 12.8421C23.0263 12.9729 23.1323 13.0789 23.2632 13.0789H28.9474Z"
            stroke="#FFF1FF" stroke-width="0.947368" />
        <path
            d="M19.4737 12.8421H12.8421C12.5908 12.8421 12.3499 12.9419 12.1722 13.1196C11.9945 13.2972 11.8947 13.5382 11.8947 13.7895V24.2105C11.8947 24.4618 11.9945 24.7027 12.1722 24.8804C12.3499 25.0581 12.5908 25.1579 12.8421 25.1579H25.1579C25.4091 25.1579 25.6501 25.0581 25.8278 24.8804C26.0054 24.7027 26.1052 24.4618 26.1052 24.2105V19.4737"
            stroke="#FFF1FF" stroke-width="0.947368" />
        <path d="M11.8947 14.7368L19 19.9474L22.7895 17.1053" stroke="#FFF1FF" stroke-width="0.947368" />
    </g>
    <rect x="0.5" y="0.5" width="37" height="37" rx="18.5" stroke="#BB1A8E" />
    <defs>
        <clipPath id="clip0_72_1665">
            <rect width="36" height="36" fill="white" transform="translate(1 1)" />
        </clipPath>
    </defs>
</svg>