<svg width="16" height="20" viewBox="0 0 16 20" fill="none" xmlns="http://www.w3.org/2000/svg">
<path d="M12 1C12 0.867392 12.0527 0.740215 12.1464 0.646447C12.2402 0.552679 12.3674 0.5 12.5 0.5C12.6326 0.5 12.7598 0.552679 12.8536 0.646447C12.9473 0.740215 13 0.867392 13 1V3.5H15.5C15.6326 3.5 15.7598 3.55268 15.8536 3.64645C15.9473 3.74021 16 3.86739 16 4C16 4.13261 15.9473 4.25979 15.8536 4.35355C15.7598 4.44732 15.6326 4.5 15.5 4.5H13V7C13 7.13261 12.9473 7.25979 12.8536 7.35355C12.7598 7.44732 12.6326 7.5 12.5 7.5C12.3674 7.5 12.2402 7.44732 12.1464 7.35355C12.0527 7.25979 12 7.13261 12 7V4.5H9.5C9.36739 4.5 9.24021 4.44732 9.14645 4.35355C9.05268 4.25979 9 4.13261 9 4C9 3.86739 9.05268 3.74021 9.14645 3.64645C9.24021 3.55268 9.36739 3.5 9.5 3.5H12V1ZM1 5.5C1 5.23478 1.10536 4.98043 1.29289 4.79289C1.48043 4.60536 1.73478 4.5 2 4.5H5.5C5.63261 4.5 5.75979 4.44732 5.85355 4.35355C5.94732 4.25979 6 4.13261 6 4C6 3.86739 5.94732 3.74021 5.85355 3.64645C5.75979 3.55268 5.63261 3.5 5.5 3.5H2C1.46957 3.5 0.960859 3.71071 0.585786 4.08579C0.210714 4.46086 0 4.96957 0 5.5V19.5C0 19.5929 0.0258573 19.6839 0.0746746 19.7629C0.123492 19.8419 0.193341 19.9057 0.276393 19.9472C0.359446 19.9887 0.452422 20.0063 0.544903 19.998C0.637384 19.9896 0.725715 19.9557 0.8 19.9L6.5 15.5L12.2 19.9C12.2743 19.9557 12.3626 19.9896 12.4551 19.998C12.5476 20.0063 12.6406 19.9887 12.7236 19.9472C12.8067 19.9057 12.8765 19.8419 12.9253 19.7629C12.9741 19.6839 13 19.5929 13 19.5V11C13 10.8674 12.9473 10.7402 12.8536 10.6464C12.7598 10.5527 12.6326 10.5 12.5 10.5C12.3674 10.5 12.2402 10.5527 12.1464 10.6464C12.0527 10.7402 12 10.8674 12 11V18.48L6.8 14.48C6.71345 14.4151 6.60819 14.38 6.5 14.38C6.39181 14.38 6.28655 14.4151 6.2 14.48L1 18.48V5.5Z" fill="#706E72"/>
</svg>
