<svg width="16" height="21" viewBox="0 0 16 21" fill="none" xmlns="http://www.w3.org/2000/svg">
<path fill-rule="evenodd" clip-rule="evenodd" d="M11.22 3.93C11.1897 3.98136 11.1488 4.02568 11.1 4.06H11.11C11.0254 4.11915 10.923 4.14739 10.82 4.14C10.7086 4.13005 10.6034 4.08446 10.52 4.01L8.5 2V9.07C8.5 9.20261 8.44732 9.32979 8.35355 9.42355C8.25979 9.51732 8.13261 9.57 8 9.57C7.86739 9.57 7.74021 9.51732 7.64645 9.42355C7.55268 9.32979 7.5 9.20261 7.5 9.07V2.02L5.5 4.02C5.42432 4.09164 5.32612 4.13478 5.22216 4.14208C5.11821 4.14937 5.01495 4.12036 4.93 4.06H4.91C4.86293 4.02482 4.82419 3.9797 4.79654 3.92785C4.76888 3.876 4.753 3.81869 4.75 3.76C4.74252 3.7026 4.74759 3.64427 4.76486 3.58902C4.78212 3.53377 4.81117 3.48293 4.85 3.44L7.65 0.64C7.74346 0.548387 7.86912 0.497071 8 0.497071C8.13088 0.497071 8.25654 0.548387 8.35 0.64L11.15 3.44C11.2143 3.50449 11.2559 3.58812 11.2685 3.67831C11.2811 3.76849 11.2641 3.86034 11.22 3.94V3.93ZM12 6.07H13.5C14.0304 6.07 14.5391 6.28071 14.9142 6.65579C15.2893 7.03086 15.5 7.53957 15.5 8.07V18.07C15.5 18.6004 15.2893 19.1091 14.9142 19.4842C14.5391 19.8593 14.0304 20.07 13.5 20.07H2.5C1.96957 20.07 1.46086 19.8593 1.08579 19.4842C0.710714 19.1091 0.5 18.6004 0.5 18.07V8.07C0.5 7.53957 0.710714 7.03086 1.08579 6.65579C1.46086 6.28071 1.96957 6.07 2.5 6.07H4C4.13046 6.06922 4.25607 6.11946 4.35 6.21C4.45 6.31 4.5 6.43 4.5 6.56C4.49812 6.69188 4.44421 6.81768 4.35 6.91C4.25769 7.00421 4.13188 7.05812 4 7.06H2.4C1.9 7.06 1.5 7.46 1.5 7.96V18.16C1.5 18.3987 1.59482 18.6276 1.7636 18.7964C1.93239 18.9652 2.16131 19.06 2.4 19.06H13.6C14.1 19.06 14.5 18.66 14.5 18.16V7.96C14.5 7.46 14.1 7.06 13.6 7.06H12C11.8674 7.06 11.7402 7.00732 11.6464 6.91355C11.5527 6.81979 11.5 6.69261 11.5 6.56C11.5 6.42739 11.5527 6.30021 11.6464 6.20645C11.7402 6.11268 11.8674 6.06 12 6.06V6.07Z" fill="#706E72"/>
</svg>
