<svg width="18" height="14" viewBox="0 0 18 14" fill="none" xmlns="http://www.w3.org/2000/svg">
<path d="M17 0.339986C16.33 0.749986 15.6 1.03999 14.82 1.20999C14.5044 0.861464 14.1208 0.581146 13.6929 0.386245C13.2649 0.191345 12.8017 0.0859771 12.3316 0.0766121C11.8615 0.0672471 11.3944 0.154083 10.959 0.331787C10.5237 0.509491 10.1293 0.774312 9.8 1.10999C9.47606 1.4345 9.21924 1.81968 9.04422 2.24349C8.86921 2.66731 8.77942 3.12146 8.78 3.57999C8.78 3.85999 8.81 4.11999 8.85 4.37999C7.46533 4.30551 6.11169 3.94128 4.87662 3.31082C3.64155 2.68037 2.55254 1.79773 1.68 0.719986C1.37916 1.25274 1.20788 1.8488 1.18 2.45999C1.18743 3.03601 1.33298 3.60184 1.60443 4.10995C1.87589 4.61805 2.26531 5.05359 2.74 5.37999C2.19529 5.3612 1.66333 5.2102 1.19 4.93999V4.99999C1.19 6.66999 2.39 8.07999 3.99 8.41999C3.69 8.47999 3.39 8.51999 3.05 8.53999L2.43 8.47999C2.65156 9.1709 3.08237 9.77588 3.66283 10.2112C4.24328 10.6466 4.94469 10.8907 5.67 10.91C4.41427 11.8618 2.88559 12.3842 1.31 12.4L0.5 12.35C2.10143 13.3703 3.96116 13.9116 5.86 13.91C12.26 13.91 15.77 8.58999 15.76 4.00999V3.50999C16.45 3.01999 17.04 2.40999 17.5 1.69999C16.87 1.99999 16.2 2.17999 15.5 2.25999C16.2266 1.83006 16.7627 1.14021 17 0.329986" fill="#868588"/>
</svg>
